<?xml version="1.0" encoding="UTF-8"?>
<svg version="1.1" xmlns="http://www.w3.org/2000/svg" width="32" height="32">
<path d="M0 0 C0.96164062 -0.00128906 1.92328125 -0.00257812 2.9140625 -0.00390625 C3.91179688 -0.00003906 4.90953125 0.00382812 5.9375 0.0078125 C7.43410156 0.00201172 7.43410156 0.00201172 8.9609375 -0.00390625 C9.92257813 -0.00261719 10.88421875 -0.00132813 11.875 0 C12.75027344 0.00112793 13.62554688 0.00225586 14.52734375 0.00341797 C16.83165586 0.12713003 18.76200429 0.3644537 20.9375 1.1328125 C22.20473437 3.66728123 22.06691328 5.45508204 22.0703125 8.2890625 C22.07160156 9.31128906 22.07289062 10.33351563 22.07421875 11.38671875 C22.07035156 12.45792969 22.06648438 13.52914063 22.0625 14.6328125 C22.06830078 16.23962891 22.06830078 16.23962891 22.07421875 17.87890625 C22.07292969 18.90113281 22.07164063 19.92335938 22.0703125 20.9765625 C22.06918457 21.91693359 22.06805664 22.85730469 22.06689453 23.82617188 C21.9375 26.1328125 21.9375 26.1328125 20.9375 28.1328125 C18.91149825 28.35792381 16.88290724 28.5769003 14.84765625 28.69140625 C12.53325188 28.99623954 12.53325188 28.99623954 10.9375 32.1328125 C8.9921875 32.42578125 8.9921875 32.42578125 6.8125 32.3203125 C5.53375 32.2584375 4.255 32.1965625 2.9375 32.1328125 C2.2775 30.8128125 1.6175 29.4928125 0.9375 28.1328125 C-2.3625 28.1328125 -5.6625 28.1328125 -9.0625 28.1328125 C-10.32973437 25.59834377 -10.19191328 23.81054296 -10.1953125 20.9765625 C-10.19660156 19.95433594 -10.19789062 18.93210937 -10.19921875 17.87890625 C-10.19535156 16.80769531 -10.19148437 15.73648437 -10.1875 14.6328125 C-10.19136719 13.56160156 -10.19523438 12.49039062 -10.19921875 11.38671875 C-10.19728516 9.85337891 -10.19728516 9.85337891 -10.1953125 8.2890625 C-10.19418457 7.34869141 -10.19305664 6.40832031 -10.19189453 5.43945312 C-10.0625 3.1328125 -10.0625 3.1328125 -9.0625 1.1328125 C-6.04557655 0.06727159 -3.17800907 0.00409537 0 0 Z M-7.0625 9.1328125 C-7.0625 14.4128125 -7.0625 19.6928125 -7.0625 25.1328125 C-4.7525 25.1328125 -2.4425 25.1328125 -0.0625 25.1328125 C-0.7225 24.8028125 -1.3825 24.4728125 -2.0625 24.1328125 C-2.0625 20.5028125 -2.0625 16.8728125 -2.0625 13.1328125 C-1.0725 12.8028125 -0.0825 12.4728125 0.9375 12.1328125 C0.9375 13.1228125 0.9375 14.1128125 0.9375 15.1328125 C0.2775 15.1328125 -0.3825 15.1328125 -1.0625 15.1328125 C-0.7325 17.4428125 -0.4025 19.7528125 -0.0625 22.1328125 C1.2575 22.1328125 2.5775 22.1328125 3.9375 22.1328125 C4.2675 19.8228125 4.5975 17.5128125 4.9375 15.1328125 C4.2775 15.1328125 3.6175 15.1328125 2.9375 15.1328125 C2.9375 14.1428125 2.9375 13.1528125 2.9375 12.1328125 C3.9275 12.4628125 4.9175 12.7928125 5.9375 13.1328125 C5.9375 16.7628125 5.9375 20.3928125 5.9375 24.1328125 C4.9475 24.4628125 3.9575 24.7928125 2.9375 25.1328125 C3.2675 26.4528125 3.5975 27.7728125 3.9375 29.1328125 C5.59364657 29.51500017 7.26207024 29.84676352 8.9375 30.1328125 C10.18999952 29.10257793 10.18999952 29.10257793 10.0625 26.8828125 C9.94044277 24.19755336 9.53553839 21.74923047 8.9375 19.1328125 C10.2575 18.8028125 11.5775 18.4728125 12.9375 18.1328125 C14.0625 22.8828125 14.0625 22.8828125 12.9375 25.1328125 C14.9175 25.1328125 16.8975 25.1328125 18.9375 25.1328125 C18.9375 19.8528125 18.9375 14.5728125 18.9375 9.1328125 C10.3575 9.1328125 1.7775 9.1328125 -7.0625 9.1328125 Z " fill="#000000" transform="translate(10.0625,-0.1328125)"/>
</svg>
