<?xml version="1.0" encoding="UTF-8"?>
<!DOCTYPE svg PUBLIC "-//W3C//DTD SVG 1.1//EN" "http://www.w3.org/Graphics/SVG/1.1/DTD/svg11.dtd">
<svg xmlns="http://www.w3.org/2000/svg" version="1.1" width="512px" height="512px" style="shape-rendering:geometricPrecision; text-rendering:geometricPrecision; image-rendering:optimizeQuality; fill-rule:evenodd; clip-rule:evenodd" xmlns:xlink="http://www.w3.org/1999/xlink">
<g><path style="opacity:0.995" fill="#000000" d="M 104.5,-0.5 C 109.167,-0.5 113.833,-0.5 118.5,-0.5C 132.5,5.48968 138.167,16.1563 135.5,31.5C 215.5,31.5 295.5,31.5 375.5,31.5C 372.833,16.1563 378.5,5.48968 392.5,-0.5C 397.167,-0.5 401.833,-0.5 406.5,-0.5C 420.5,5.48968 426.167,16.1563 423.5,31.5C 439.503,31.3334 455.503,31.5001 471.5,32C 484,35.1667 491.833,43 495,55.5C 495.667,172.833 495.667,290.167 495,407.5C 491.833,420 484,427.833 471.5,431C 438.167,431.667 404.833,431.667 371.5,431C 370.584,430.626 369.75,430.126 369,429.5C 367.517,426.298 367.183,422.964 368,419.5C 368.5,417.667 369.667,416.5 371.5,416C 402.167,415.667 432.833,415.333 463.5,415C 470.566,414.553 475.399,411.053 478,404.5C 479.488,312.203 479.988,219.869 479.5,127.5C 330.167,127.5 180.833,127.5 31.5,127.5C 31.0123,219.869 31.5123,312.203 33,404.5C 35.6008,411.053 40.4342,414.553 47.5,415C 86.1667,415.333 124.833,415.667 163.5,416C 165.333,416.5 166.5,417.667 167,419.5C 167.817,422.964 167.483,426.298 166,429.5C 165.25,430.126 164.416,430.626 163.5,431C 122.167,431.667 80.8333,431.667 39.5,431C 27,427.833 19.1667,420 16,407.5C 15.3333,290.167 15.3333,172.833 16,55.5C 19.1667,43 27,35.1667 39.5,32C 55.4965,31.5001 71.4965,31.3334 87.5,31.5C 84.8333,16.1563 90.5,5.48968 104.5,-0.5 Z M 108.5,16.5 C 114.326,15.4887 117.826,17.822 119,23.5C 119.667,36.8333 119.667,50.1667 119,63.5C 117.134,70.3469 112.968,72.1803 106.5,69C 105.283,67.3523 104.45,65.519 104,63.5C 103.333,50.1667 103.333,36.8333 104,23.5C 104.53,20.415 106.03,18.0817 108.5,16.5 Z M 396.5,16.5 C 402.326,15.4887 405.826,17.822 407,23.5C 407.667,36.8333 407.667,50.1667 407,63.5C 405.134,70.3469 400.968,72.1803 394.5,69C 393.283,67.3523 392.45,65.519 392,63.5C 391.333,50.1667 391.333,36.8333 392,23.5C 392.53,20.415 394.03,18.0817 396.5,16.5 Z M 338.5,320.5 C 355.765,320.257 361.598,328.257 356,344.5C 349.749,351.011 342.582,352.177 334.5,348C 327.989,341.749 326.823,334.582 331,326.5C 333.114,323.879 335.614,321.879 338.5,320.5 Z"/></g>
<g><path style="opacity:0.955" fill="#000000" d="M 280.5,511.5 C 271.833,511.5 263.167,511.5 254.5,511.5C 215.845,503.011 192.345,479.345 184,440.5C 183.5,421.503 183.333,402.503 183.5,383.5C 148.904,377.738 127.738,357.738 120,323.5C 119.333,292.833 119.333,262.167 120,231.5C 125.843,212.831 138.343,205.331 157.5,209C 160.167,213.333 160.167,217.667 157.5,222C 152.408,223.417 147.408,225.084 142.5,227C 139.894,228.938 138.061,231.438 137,234.5C 135.88,248.122 135.38,261.789 135.5,275.5C 135.426,290.859 135.926,306.192 137,321.5C 142.5,345.667 157.333,360.5 181.5,366C 211.253,368.881 232.086,356.715 244,329.5C 245.787,323.634 246.787,317.634 247,311.5C 247.667,287.5 247.667,263.5 247,239.5C 246.549,234.43 244.382,230.264 240.5,227C 235.318,225.166 230.151,223.332 225,221.5C 223,217.5 223,213.5 225,209.5C 244.288,205.15 256.955,212.483 263,231.5C 263.667,262.167 263.667,292.833 263,323.5C 255.262,357.738 234.096,377.738 199.5,383.5C 199.333,398.17 199.5,412.837 200,427.5C 203.908,468.575 226.408,491.242 267.5,495.5C 308.592,491.242 331.092,468.575 335,427.5C 335.833,412.822 335.666,398.155 334.5,383.5C 305.499,374.985 292.666,355.651 296,325.5C 304.654,297.079 323.82,284.579 353.5,288C 373.333,293.167 385.833,305.667 391,325.5C 394.334,355.651 381.501,374.985 352.5,383.5C 351.667,402.491 351.167,421.491 351,440.5C 342.655,479.345 319.155,503.011 280.5,511.5 Z M 338.5,320.5 C 335.614,321.879 333.114,323.879 331,326.5C 326.823,334.582 327.989,341.749 334.5,348C 342.582,352.177 349.749,351.011 356,344.5C 361.598,328.257 355.765,320.257 338.5,320.5 Z"/></g>
</svg>
